<?xml version="1.0" encoding="utf-8"?>
<svg viewBox="0 0 32 32" fill="none" xmlns="http://www.w3.org/2000/svg">
  <path d="M 2 5 C 2 4.204 2.316 3.441 2.879 2.879 C 3.441 2.316 4.204 2 5 2 L 27 2 C 27.796 2 28.559 2.316 29.121 2.879 C 29.684 3.441 30 4.204 30 5 L 30 11 C 30 11.796 29.684 12.559 29.121 13.121 C 28.559 13.684 27.796 14 27 14 L 5 14 C 4.204 14 3.441 13.684 2.879 13.121 C 2.316 12.559 2 11.796 2 11 L 2 5 Z M 5 4 C 4.735 4 4.48 4.105 4.293 4.293 C 4.105 4.48 4 4.735 4 5 L 4 11 C 4 11.265 4.105 11.52 4.293 11.707 C 4.48 11.895 4.735 12 5 12 L 27 12 C 27.265 12 27.52 11.895 27.707 11.707 C 27.895 11.52 28 11.265 28 11 L 28 5 C 28 4.735 27.895 4.48 27.707 4.293 C 27.52 4.105 27.265 4 27 4 L 5 4 Z M 2 21 C 2 20.204 2.316 19.441 2.879 18.879 C 3.441 18.316 4.204 18 5 18 L 27 18 C 27.796 18 28.559 18.316 29.121 18.879 C 29.684 19.441 30 20.204 30 21 L 30 27 C 30 27.796 29.684 28.559 29.121 29.121 C 28.559 29.684 27.796 30 27 30 L 5 30 C 4.204 30 3.441 29.684 2.879 29.121 C 2.316 28.559 2 27.796 2 27 L 2 21 Z M 5 20 C 4.735 20 4.48 20.105 4.293 20.293 C 4.105 20.48 4 20.735 4 21 L 4 27 C 4 27.265 4.105 27.52 4.293 27.707 C 4.48 27.895 4.735 28 5 28 L 27 28 C 27.265 28 27.52 27.895 27.707 27.707 C 27.895 27.52 28 27.265 28 27 L 28 21 C 28 20.735 27.895 20.48 27.707 20.293 C 27.52 20.105 27.265 20 27 20 L 5 20 Z" fill="currentColor"/>
</svg>